<?xml version="1.0" encoding="UTF-8" standalone="no"?>
<!-- Created with Inkscape (http://www.inkscape.org/) -->

<svg
   xmlns:dc="http://purl.org/dc/elements/1.1/"
   xmlns:cc="http://creativecommons.org/ns#"
   xmlns:rdf="http://www.w3.org/1999/02/22-rdf-syntax-ns#"
   xmlns:svg="http://www.w3.org/2000/svg"
   xmlns="http://www.w3.org/2000/svg"
   xmlns:sodipodi="http://sodipodi.sourceforge.net/DTD/sodipodi-0.dtd"
   xmlns:inkscape="http://www.inkscape.org/namespaces/inkscape"
   width="210mm"
   height="297mm"
   viewBox="0 0 744.09448819 1052.3622047"
   id="svg2"
   version="1.1"
   inkscape:version="0.91 r13725"
   sodipodi:docname="img.svg">
  <defs
     id="defs4" />
  <sodipodi:namedview
     id="base"
     pagecolor="#ffffff"
     bordercolor="#666666"
     borderopacity="1.0"
     inkscape:pageopacity="0.0"
     inkscape:pageshadow="2"
     inkscape:zoom="0.98994949"
     inkscape:cx="300.81315"
     inkscape:cy="417.34777"
     inkscape:document-units="px"
     inkscape:current-layer="layer1"
     showgrid="false"
     inkscape:window-width="1920"
     inkscape:window-height="1017"
     inkscape:window-x="-8"
     inkscape:window-y="-8"
     inkscape:window-maximized="1" />
  <metadata
     id="metadata7">
    <rdf:RDF>
      <cc:Work
         rdf:about="">
        <dc:format>image/svg+xml</dc:format>
        <dc:type
           rdf:resource="http://purl.org/dc/dcmitype/StillImage" />
        <dc:title />
      </cc:Work>
    </rdf:RDF>
  </metadata>
  <g
     inkscape:label="Layer 1"
     inkscape:groupmode="layer"
     id="layer1">
    <path
       style="fill:#4d4d4d;fill-opacity:1;stroke:none;stroke-width:1.16828656"
       d="m 336.7984,461.80156 a 25.091576,25.229567 0 0 0 -25.0934,25.2291 25.091576,25.229567 0 0 0 25.0934,25.2291 25.091576,25.229567 0 0 0 25.09138,-25.2291 25.091576,25.229567 0 0 0 -25.09138,-25.2291 z"
       id="path3356"
       inkscape:connector-curvature="0" />
    <path
       id="path4166"
       d="m 336.7984,461.80156 a 25.091576,25.229567 0 0 0 -25.0934,25.2291 25.091576,25.229567 0 0 0 25.0934,25.2291 25.091576,25.229567 0 0 0 25.09138,-25.2291 25.091576,25.229567 0 0 0 -25.09138,-25.2291 z"
       style="fill:#ffffff;fill-opacity:0.09803922;stroke:none;stroke-width:1.16828656"
       inkscape:connector-curvature="0" />
    <path
       style="fill:#4d4d4d;fill-rule:evenodd;stroke:none;stroke-width:1px;stroke-linecap:butt;stroke-linejoin:miter;stroke-opacity:1"
       d="m 315.58594,411.13766 c -30.06107,0 -54.26155,24.20057 -54.26155,54.26162 l 0,158.39001 c 0,30.06105 24.20048,54.26162 54.26155,54.26162 l 159.03773,0 c 30.06107,0 54.26155,-24.20057 54.26155,-54.26162 l 0,-158.39001 c 0,-30.06105 -24.20048,-54.26162 -54.26155,-54.26162 l -159.03773,0 z m -4.33869,34.98103 167.07899,0 c 8.53952,0 15.41514,6.87563 15.41514,15.41521 l 0,167.43189 c 0,8.5396 -6.87562,15.41522 -15.41514,15.41522 l -167.07899,0 c -8.53958,0 -15.41521,-6.87562 -15.41521,-15.41522 l 0,-167.43189 c 0,-8.53958 6.87563,-15.41521 15.41521,-15.41521 z"
       id="rect3349"
       inkscape:connector-curvature="0" />
    <path
       style="fill:#4d4d4d;fill-rule:evenodd;stroke:none;stroke-width:1px;stroke-linecap:butt;stroke-linejoin:miter;stroke-opacity:1"
       d="m 328.4668,566.5289 -15.42746,37.23858 c -2.96216,10.39931 -0.36301,22.40374 14.89544,23.76175 l 134.23621,0.35458 c 14.85194,-1.05802 17.4725,-11.70293 14.89536,-26.42168 l -24.29377,-54.43914 c -10.91134,-22.8209 -21.47774,-20.80382 -31.91879,-9.753 l -34.9333,48.58745 c -7.42543,7.97891 -14.6185,17.26559 -25.71235,4.61048 l -16.84598,-21.81118 c -5.62599,-7.31769 -10.68663,-8.98279 -14.89536,-2.12791 z"
       id="path3360"
       inkscape:connector-curvature="0"
       sodipodi:nodetypes="ccccccccccc" />
    <path
       style="fill:#ffffff;fill-opacity:0.09803922;fill-rule:evenodd;stroke:none;stroke-width:1px;stroke-linecap:butt;stroke-linejoin:miter;stroke-opacity:1"
       d="m 334.45543,562.1847 c -2.14345,-0.023 -4.1479,1.34545 -5.98916,4.34451 l -15.42693,37.23851 c -1.98102,6.95458 -1.46821,14.62255 3.64819,19.34845 L 354.8338,583.5095 343.36164,568.65681 c -3.16465,-4.11629 -6.1503,-6.44331 -8.90621,-6.47211 z"
       id="path4168"
       inkscape:connector-curvature="0" />
    <path
       style="fill:#ffffff;fill-opacity:0.09803922;fill-rule:evenodd;stroke:none;stroke-width:1px;stroke-linecap:butt;stroke-linejoin:miter;stroke-opacity:1"
       d="m 315.58594,411.13766 c -30.06107,0 -54.26155,24.20057 -54.26155,54.26162 l 0,158.39001 c 0,15.51706 6.45907,29.46155 16.83295,39.33317 l 22.29269,-23.14607 c -2.84951,-2.79426 -4.61799,-6.68624 -4.61799,-11.0106 l 0,-167.43189 c 0,-8.53958 6.87563,-15.41521 15.41521,-15.41521 l 167.07899,0 c 2.58336,0 5.00849,0.63948 7.14314,1.75326 l 23.57472,-24.47851 c -9.35338,-7.66367 -21.33002,-12.25578 -34.42043,-12.25578 l -159.03773,0 z"
       id="path4164"
       inkscape:connector-curvature="0" />
  </g>
</svg>
